HIERARCHY
ROOT Hips
{
 OFFSET 0.000000 0.000000 0.000000
 CHANNELS 6 Xposition Yposition Zposition Yrotation Xrotation Zrotation
 JOINT Chest
 {
  OFFSET 0.000000 9.588913 -0.003946
  CHANNELS 3 Yrotation Xrotation Zrotation
  JOINT Chest2
  {
   OFFSET 0.000000 9.541882 0.008053
   CHANNELS 3 Yrotation Xrotation Zrotation
   JOINT Chest3
   {
    OFFSET 0.000000 9.501360 0.000000
    CHANNELS 3 Yrotation Xrotation Zrotation
    JOINT Chest4
    {
     OFFSET 0.000000 9.491660 0.000000
     CHANNELS 3 Yrotation Xrotation Zrotation
     JOINT Neck
     {
      OFFSET 0.000000 14.331917 0.000000
      CHANNELS 3 Yrotation Xrotation Zrotation
      JOINT Head
      {
       OFFSET 0.000000 8.884799 0.017034
       CHANNELS 3 Yrotation Xrotation Zrotation
       End Site
       {
        OFFSET 0.000000 16.896195 0.008993
       }
      }
     }
     JOINT RightCollar
     {
      OFFSET -2.923010 9.499495 0.000000
      CHANNELS 3 Yrotation Xrotation Zrotation
      JOINT RightShoulder
      {
       OFFSET -13.795216 0.000000 0.000000
       CHANNELS 3 Yrotation Xrotation Zrotation
       JOINT RightElbow
       {
        OFFSET -30.272209 0.000000 0.000000
        CHANNELS 3 Yrotation Xrotation Zrotation
        JOINT RightWrist
        {
         OFFSET -24.478199 0.000000 0.000000
         CHANNELS 3 Yrotation Xrotation Zrotation
         End Site
         {
          OFFSET -18.090752 0.000000 0.000000
         }
        }
       }
      }
     }
     JOINT LeftCollar
     {
      OFFSET 2.923010 9.499495 0.000000
      CHANNELS 3 Yrotation Xrotation Zrotation
      JOINT LeftShoulder
      {
       OFFSET 13.795216 0.000000 0.000000
       CHANNELS 3 Yrotation Xrotation Zrotation
       JOINT LeftElbow
       {
        OFFSET 30.272209 0.000000 0.000000
        CHANNELS 3 Yrotation Xrotation Zrotation
        JOINT LeftWrist
        {
         OFFSET 24.478199 0.000000 0.000000
         CHANNELS 3 Yrotation Xrotation Zrotation
         End Site
         {
          OFFSET 18.090752 0.000000 0.000000
         }
        }
       }
      }
     }
    }
   }
  }
 }
 JOINT RightHip
 {
  OFFSET -7.826875 0.019532 0.001973
  CHANNELS 3 Yrotation Xrotation Zrotation
  JOINT RightKnee
  {
   OFFSET 0.000000 -40.546152 -0.001885
   CHANNELS 3 Yrotation Xrotation Zrotation
   JOINT RightAnkle
   {
    OFFSET 0.000000 -39.417092 -0.003189
    CHANNELS 3 Yrotation Xrotation Zrotation
    JOINT RightToe
    {
     OFFSET 0.000000 -7.579396 17.243563
     CHANNELS 3 Yrotation Xrotation Zrotation
     End Site
     {
      OFFSET 0.000000 -1.500329 6.694466
     }
    }
   }
  }
 }
 JOINT LeftHip
 {
  OFFSET 7.826875 0.019532 0.001973
  CHANNELS 3 Yrotation Xrotation Zrotation
  JOINT LeftKnee
  {
   OFFSET 0.000000 -40.546152 -0.001885
   CHANNELS 3 Yrotation Xrotation Zrotation
   JOINT LeftAnkle
   {
    OFFSET 0.000000 -39.417092 -0.003189
    CHANNELS 3 Yrotation Xrotation Zrotation
    JOINT LeftToe
    {
     OFFSET 0.000000 -7.579396 17.243563
     CHANNELS 3 Yrotation Xrotation Zrotation
     End Site
     {
      OFFSET 0.000000 -1.500329 6.694466
     }
    }
   }
  }
 }
}
MOTION
Frames: 6
Frame Time: 0.008333
0.000000 87.345680 0.000000 0.000000 -5.767889 0.000000 0.000000 11.653876 0.000000 0.000000 -5.885988 0.000000 0.000000 -0.000000 0.000000 0.000000 -0.000000 0.000000 0.000000 12.528808 0.000000 0.000000 0.711711 0.000000 0.000000 -0.000000 0.000000 0.000000 -0.000000 0.000000 2.309063 -0.000000 0.000000 -2.309063 -0.000000 -0.000000 0.000000 -0.000000 0.000000 0.000000 0.000000 0.000000 -2.309063 0.000000 0.000000 2.309063 -0.000000 0.000000 0.000000 8.520374 0.000000 0.000000 1.905768 0.000000 -0.000000 -4.658254 0.000000 0.000000 -0.000000 0.000000 0.000000 8.520374 0.000000 0.000000 1.905768 0.000000 -0.000000 -4.658254 0.000000 0.000000 -0.000000 0.000000
16.782639 24.726225 21.497759 -42.009542 -37.073623 7.775517 17.458119 21.040990 15.058197 10.199013 13.215357 6.613005 13.075470 16.310254 8.694545 10.199021 13.215361 6.613003 8.438822 10.780513 -15.246809 14.194940 -13.389390 -20.695600 20.329883 -3.240809 -18.584687 8.340598 -45.668481 62.152992 98.584219 4.519067 9.417910 17.935727 2.271401 -17.985103 1.137188 4.356045 -1.149475 14.633694 -27.204823 -94.827664 -125.369060 -29.727784 -21.360169 -25.450613 28.664262 30.548041 29.780131 -12.684819 -5.622659 -156.930061 28.107530 172.398730 41.419160 -14.298047 26.785936 146.757154 -79.263610 -152.539285 42.592058 -22.312585 42.374858 153.879218 33.849349 -149.981860 -30.635713 -5.941273 -9.499745 -1.104389 1.164478 -0.611979
16.779294 24.762909 21.522946 -42.015479 -37.040814 7.775761 17.498524 21.027925 15.015992 10.218040 13.168490 6.600486 13.097377 16.251740 8.677616 10.218048 13.168495 6.600484 8.457324 10.737258 -15.188526 14.202235 -13.444943 -20.627988 20.315453 -3.347074 -18.454109 8.034511 -45.420934 62.454600 98.705088 4.474252 9.530325 18.024461 2.277767 -17.996820 1.171464 4.337916 -1.147891 14.416144 -26.999790 -94.653627 -125.353507 -29.794577 -21.483491 -25.505515 28.709689 30.592068 29.710853 -12.669004 -5.592540 -156.948479 28.112839 172.406652 41.243497 -14.283175 26.700293 147.130940 -79.295066 -152.847272 42.687843 -22.339762 42.352798 153.832259 33.850180 -150.026589 -30.492947 -5.975055 -9.411424 -1.087323 1.160825 -0.605741
16.775143 24.806236 21.550000 -42.024715 -36.989189 7.768031 17.546450 20.995162 14.977707 10.238659 13.121702 6.589404 13.121344 16.193248 8.662553 10.238668 13.121707 6.589402 8.472206 10.692887 -15.132699 14.205887 -13.501813 -20.562596 20.297317 -3.443614 -18.326935 7.724802 -45.186775 62.756244 98.819382 4.424973 9.645900 18.121266 2.279256 -18.017988 1.205612 4.317469 -1.144634 14.198009 -26.809332 -94.495945 -125.321174 -29.843172 -21.608010 -25.588960 28.751600 30.633272 29.644841 -12.671061 -5.559563 -156.972662 28.123182 172.414201 41.058463 -14.267818 26.613550 147.471066 -79.330697 -153.122616 42.791125 -22.384987 42.323606 153.787683 33.850892 -150.070558 -30.348536 -6.005085 -9.317104 -1.071675 1.155998 -0.601439
16.770065 24.854991 21.578352 -42.042750 -36.923118 7.757382 17.602480 20.949855 14.941834 10.261018 13.076005 6.578438 13.147541 16.136078 8.647737 10.261026 13.076010 6.578436 8.483366 10.644922 -15.078822 14.205830 -13.562957 -20.498985 20.287866 -3.528757 -18.198097 7.403411 -44.964510 63.050865 98.932775 4.370229 9.772888 18.223259 2.277727 -18.053052 1.241330 4.294071 -1.141789 13.982937 -26.635551 -94.352260 -125.271373 -29.880974 -21.737262 -25.700324 28.788853 30.674396 29.583244 -12.688423 -5.521471 -157.008432 28.134150 172.417606 40.851931 -14.251252 26.530074 147.795449 -79.371580 -153.377565 42.903747 -22.442063 42.291430 153.748022 33.850419 -150.114716 -30.199499 -6.035327 -9.207707 -1.060307 1.151173 -0.600759
16.764527 24.907806 21.608230 -42.072831 -36.849111 7.753395 17.664266 20.900636 14.902038 10.284714 13.032156 6.566369 13.175447 16.081221 8.631655 10.284721 13.032160 6.566368 8.491655 10.593068 -15.025870 14.202824 -13.628752 -20.436101 20.291559 -3.608876 -18.063607 7.072421 -44.741656 63.328290 99.050144 4.305182 9.916546 18.329584 2.273571 -18.101046 1.280646 4.267100 -1.139607 13.773132 -26.478068 -94.220610 -125.206083 -29.912400 -21.870488 -25.837648 28.819982 30.713201 29.531177 -12.712311 -5.484215 -157.040719 28.145871 172.424714 40.640912 -14.232253 26.445036 148.112380 -79.416520 -153.620085 43.028134 -22.500764 42.256427 153.710743 33.851116 -150.162613 -30.043754 -6.066883 -9.089048 -1.053348 1.147589 -0.601981
